<svg width="208" height="112" viewBox="0 0 208 112" fill="none" xmlns="http://www.w3.org/2000/svg">
<g filter="url(#filter0_d_4632_11228)">
<rect x="6" y="4" width="196" height="100" rx="8" fill="white"/>
<rect x="6.5" y="4.5" width="195" height="99" rx="7.5" stroke="#E2E5F1"/>
<path d="M68.5197 49.25C68.8797 49.25 68.9997 49.38 68.9997 49.73V57.65H73.0697C73.4197 57.65 73.5497 57.78 73.5497 58.13V58.83C73.5497 59.18 73.4197 59.31 73.0697 59.31H67.7097C67.3597 59.31 67.2197 59.18 67.2197 58.83V49.73C67.2197 49.38 67.3597 49.25 67.7097 49.25H68.5197Z" fill="#B4B7C9"/>
<path d="M77.0996 52.74C77.0996 50.43 78.5596 49.04 81.0996 49.04C83.6396 49.04 85.0996 50.43 85.0996 52.74V55.82C85.0996 58.13 83.6296 59.52 81.0996 59.52C78.5696 59.52 77.0996 58.13 77.0996 55.82V52.74ZM83.4196 52.74C83.4196 51.44 82.6096 50.74 81.1496 50.74C79.6896 50.74 78.8896 51.45 78.8896 52.74V55.84C78.8896 57.15 79.6896 57.84 81.1496 57.84C82.6096 57.84 83.4196 57.12 83.4196 55.84V52.74Z" fill="#B4B7C9"/>
<path d="M97.0097 53.8C97.3997 53.8 97.4897 53.93 97.4897 54.28V56.18C97.5003 56.6275 97.4106 57.0718 97.2272 57.4801C97.0437 57.8885 96.7713 58.2506 96.4297 58.54C95.5814 59.2155 94.5118 59.5506 93.4297 59.48C90.8397 59.48 89.4297 58.09 89.4297 55.78V52.68C89.4297 50.4 90.8897 49 93.4297 49C95.4297 49 96.7297 49.79 97.2797 51.37C97.3105 51.4294 97.327 51.4951 97.3279 51.5619C97.3288 51.6288 97.3141 51.695 97.285 51.7551C97.2559 51.8153 97.2131 51.8679 97.1601 51.9087C97.1071 51.9494 97.0453 51.9773 96.9797 51.99L96.1997 52.26C95.8597 52.38 95.7197 52.31 95.5997 51.96C95.434 51.5329 95.1307 51.1731 94.7377 50.9377C94.3447 50.7023 93.8845 50.6045 93.4297 50.66C91.9597 50.66 91.1597 51.37 91.1597 52.66V55.84C91.1597 57.15 91.9697 57.84 93.4297 57.84C94.8897 57.84 95.7897 57.17 95.7897 56.19V55.45H93.6197C93.2597 55.45 93.1297 55.31 93.1297 54.96V54.28C93.1297 53.93 93.2597 53.8 93.6197 53.8H97.0097Z" fill="#B4B7C9"/>
<path d="M101.62 52.74C101.62 50.43 103.08 49.04 105.62 49.04C108.16 49.04 109.62 50.43 109.62 52.74V55.82C109.62 58.13 108.15 59.52 105.62 59.52C103.09 59.52 101.62 58.13 101.62 55.82V52.74ZM107.93 52.74C107.93 51.44 107.12 50.74 105.67 50.74C104.22 50.74 103.4 51.45 103.4 52.74V55.84C103.4 57.15 104.21 57.84 105.67 57.84C107.13 57.84 107.93 57.12 107.93 55.84V52.74Z" fill="#B4B7C9"/>
<path d="M114.33 49.54C114.33 49.32 114.4 49.25 114.62 49.25H115.08C115.3 49.25 115.35 49.32 115.35 49.54V59.02C115.35 59.24 115.35 59.31 115.08 59.31H114.62C114.4 59.31 114.33 59.24 114.33 59.02V49.54Z" fill="#B4B7C9"/>
<path d="M124.46 49.25C125.293 49.25 126.092 49.5808 126.681 50.1697C127.27 50.7585 127.6 51.5572 127.6 52.39C127.6 53.2228 127.27 54.0215 126.681 54.6103C126.092 55.1992 125.293 55.53 124.46 55.53H121.46V59.02C121.46 59.24 121.41 59.31 121.2 59.31H120.73C120.52 59.31 120.44 59.24 120.44 59.02V49.54C120.44 49.32 120.52 49.25 120.73 49.25H124.46ZM124.37 54.54C124.657 54.54 124.94 54.4836 125.205 54.3741C125.469 54.2645 125.71 54.1039 125.912 53.9015C126.114 53.6991 126.275 53.4587 126.385 53.1943C126.494 52.9298 126.55 52.6463 126.55 52.36C126.55 52.0737 126.494 51.7902 126.385 51.5257C126.275 51.2613 126.114 51.0209 125.912 50.8185C125.71 50.6161 125.469 50.4555 125.205 50.3459C124.94 50.2364 124.657 50.18 124.37 50.18H121.37V54.54H124.37Z" fill="#B4B7C9"/>
<path d="M135.41 49.0501C136.182 48.9649 136.961 49.131 137.632 49.5237C138.301 49.9165 138.827 50.5149 139.13 51.2301C139.21 51.3901 139.13 51.5201 138.97 51.6001L138.53 51.8001C138.35 51.8701 138.28 51.8601 138.17 51.6701C137.944 51.1393 137.554 50.6943 137.058 50.3995C136.562 50.1047 135.985 49.9753 135.41 50.0301C133.72 50.0301 132.8 50.7001 132.8 51.9001C132.791 52.2668 132.914 52.6248 133.147 52.9078C133.381 53.1908 133.708 53.3799 134.07 53.4401C134.608 53.6155 135.166 53.723 135.73 53.7601C136.414 53.7965 137.088 53.9347 137.73 54.1701C138.223 54.326 138.647 54.6466 138.931 55.0782C139.215 55.5098 139.342 56.026 139.29 56.5401C139.29 58.4101 137.93 59.5401 135.43 59.5401C134.61 59.6339 133.783 59.4439 133.086 59.0017C132.389 58.5596 131.865 57.8919 131.6 57.1101C131.583 57.0745 131.573 57.0354 131.572 56.9956C131.572 56.9558 131.58 56.9164 131.596 56.8801C131.612 56.8438 131.636 56.8115 131.666 56.7856C131.696 56.7596 131.732 56.7407 131.77 56.7301L132.21 56.5701C132.245 56.5559 132.282 56.5491 132.32 56.5501C132.357 56.5511 132.394 56.5599 132.428 56.5759C132.462 56.5919 132.492 56.6147 132.516 56.643C132.541 56.6713 132.559 56.7043 132.57 56.7401C132.794 57.305 133.192 57.784 133.706 58.1077C134.22 58.4313 134.824 58.5828 135.43 58.5401C137.32 58.5401 138.25 57.8801 138.25 56.5401C138.268 56.1879 138.16 55.8408 137.946 55.5606C137.732 55.2805 137.425 55.0854 137.08 55.0101C136.563 54.8558 136.029 54.7618 135.49 54.7301L134.41 54.5901C134.072 54.5184 133.739 54.4282 133.41 54.3201C133.086 54.2222 132.784 54.0626 132.52 53.8501C132.255 53.6099 132.046 53.3143 131.908 52.9842C131.769 52.6541 131.705 52.2977 131.72 51.9401C131.79 50.1901 133.1 49.0501 135.41 49.0501Z" fill="#B4B7C9"/>
<path d="M144.68 55.89C144.722 56.5972 145.033 57.2615 145.549 57.7472C146.065 58.2329 146.747 58.5033 147.455 58.5033C148.163 58.5033 148.845 58.2329 149.361 57.7472C149.877 57.2615 150.187 56.5972 150.23 55.89V49.54C150.23 49.32 150.3 49.25 150.52 49.25H150.98C151.2 49.25 151.27 49.32 151.27 49.54V55.88C151.27 58.15 149.93 59.52 147.46 59.52C144.99 59.52 143.65 58.15 143.65 55.88V49.54C143.65 49.32 143.72 49.25 143.93 49.25H144.4C144.61 49.25 144.68 49.32 144.68 49.54V55.89Z" fill="#B4B7C9"/>
<path d="M165.07 49.25C165.29 49.25 165.36 49.32 165.36 49.54V59.02C165.36 59.24 165.29 59.31 165.07 59.31H164.65C164.44 59.31 164.37 59.24 164.37 59.02V53.25C164.37 52.4105 164.427 51.5719 164.54 50.74H164.48C164.168 51.5007 163.803 52.2391 163.39 52.95L161.24 56.74C161.214 56.8058 161.168 56.862 161.109 56.9013C161.05 56.9405 160.981 56.961 160.91 56.96H160.63C160.558 56.9604 160.488 56.9397 160.427 56.9007C160.367 56.8616 160.319 56.8058 160.29 56.74L158.11 52.91C157.723 52.2093 157.389 51.4806 157.11 50.73H157.05C157.152 51.5695 157.206 52.4143 157.21 53.26V59.02C157.21 59.24 157.14 59.31 156.92 59.31H156.53C156.31 59.31 156.24 59.24 156.24 59.02V49.54C156.24 49.32 156.31 49.25 156.53 49.25H156.89C156.972 49.2424 157.055 49.2603 157.126 49.3015C157.198 49.3427 157.255 49.4051 157.29 49.48L160.79 55.7L164.27 49.54C164.38 49.33 164.44 49.3 164.66 49.3L165.07 49.25Z" fill="#B4B7C9"/>
<path d="M50.73 57.79V65.02C50.73 65.2972 50.6199 65.563 50.4239 65.7589C50.228 65.9549 49.9622 66.065 49.685 66.065C49.4079 66.065 49.1421 65.9549 48.9461 65.7589C48.7501 65.563 48.64 65.2972 48.64 65.02V57.8C48.931 58.0125 49.2798 58.1311 49.64 58.14C50.0326 58.1512 50.4173 58.0277 50.73 57.79ZM59.63 55.7C59.3648 55.7 59.1104 55.8054 58.9229 55.9929C58.7354 56.1804 58.63 56.4348 58.63 56.7V57.96C58.63 58.2372 58.7401 58.503 58.9361 58.6989C59.132 58.8949 59.3978 59.005 59.675 59.005C59.9522 59.005 60.218 58.8949 60.4139 58.6989C60.6099 58.503 60.72 58.2372 60.72 57.96V56.75C60.7278 56.6066 60.7046 56.4632 60.652 56.3296C60.5994 56.196 60.5187 56.0752 60.4152 55.9756C60.3118 55.876 60.1881 55.7998 60.0527 55.7522C59.9172 55.7047 59.773 55.6869 59.63 55.7ZM46.37 60.53C46.0102 60.5192 45.6618 60.4008 45.37 60.19V67.44C45.37 67.7185 45.4806 67.9856 45.6775 68.1825C45.8744 68.3794 46.1415 68.49 46.42 68.49C46.6985 68.49 46.9656 68.3794 47.1625 68.1825C47.3594 67.9856 47.47 67.7185 47.47 67.44V60.24C47.1435 60.4511 46.7582 60.5527 46.37 60.53ZM56.37 53.53C56.2345 53.5232 56.0991 53.5441 55.9719 53.5913C55.8448 53.6385 55.7286 53.7111 55.6303 53.8046C55.5321 53.8982 55.454 54.0107 55.4006 54.1354C55.3473 54.2601 55.3198 54.3944 55.32 54.53V60.1C55.32 60.3785 55.4306 60.6456 55.6275 60.8425C55.8245 61.0394 56.0915 61.15 56.37 61.15C56.6485 61.15 56.9156 61.0394 57.1125 60.8425C57.3094 60.6456 57.42 60.3785 57.42 60.1V54.6C57.428 54.4557 57.4046 54.3114 57.3514 54.177C57.2982 54.0426 57.2166 53.9213 57.112 53.8215C57.0074 53.7217 56.8825 53.6457 56.7458 53.5989C56.6091 53.552 56.4638 53.5353 56.32 53.55L56.37 53.53ZM53.05 55.67C52.6733 55.6674 52.3067 55.5487 52 55.33V62.6C52 62.8785 52.1106 63.1456 52.3075 63.3425C52.5045 63.5394 52.7715 63.65 53.05 63.65C53.3285 63.65 53.5955 63.5394 53.7925 63.3425C53.9894 63.1456 54.1 62.8785 54.1 62.6V55.34C53.7828 55.5763 53.3955 55.6995 53 55.69L53.05 55.67ZM44.1 61.24V40.93C44.0974 40.6824 43.9972 40.4459 43.8212 40.2718C43.6452 40.0977 43.4076 40 43.16 40H42.94C42.6924 40 42.4548 40.0977 42.2788 40.2718C42.1028 40.4459 42.0026 40.6824 42 40.93V61.24C42 61.4893 42.099 61.7284 42.2753 61.9047C42.4516 62.081 42.6907 62.18 42.94 62.18H43.16C43.4093 62.18 43.6484 62.081 43.8247 61.9047C44.001 61.7284 44.1 61.4893 44.1 61.24ZM46.48 59.76H46.26C46.0107 59.76 45.7716 59.661 45.5953 59.4847C45.419 59.3084 45.32 59.0693 45.32 58.82V43.35C45.3226 43.1024 45.4228 42.8659 45.5988 42.6918C45.7748 42.5177 46.0124 42.42 46.26 42.42H46.48C46.7276 42.42 46.9652 42.5177 47.1412 42.6918C47.3172 42.8659 47.4174 43.1024 47.42 43.35V58.84C47.42 59.0893 47.321 59.3284 47.1447 59.5047C46.9684 59.681 46.7293 59.78 46.48 59.78V59.76ZM49.79 57.38H49.56C49.3134 57.38 49.0768 57.282 48.9024 57.1076C48.728 56.9332 48.63 56.6967 48.63 56.45V45.75C48.6287 45.627 48.6518 45.505 48.6979 45.391C48.744 45.277 48.8123 45.1733 48.8988 45.0859C48.9853 44.9985 49.0883 44.9291 49.2018 44.8817C49.3153 44.8344 49.437 44.81 49.56 44.81H49.79C50.0376 44.8126 50.2741 44.9128 50.4482 45.0888C50.6224 45.2648 50.72 45.5024 50.72 45.75V56.45C50.72 56.6967 50.622 56.9332 50.4476 57.1076C50.2732 57.282 50.0367 57.38 49.79 57.38ZM53.1 54.93H52.89C52.6424 54.93 52.4048 54.8324 52.2288 54.6582C52.0528 54.4841 51.9526 54.2476 51.95 54V48.24C51.9418 48.1116 51.96 47.9829 52.0036 47.8618C52.0471 47.7408 52.1151 47.6299 52.2032 47.5362C52.2913 47.4424 52.3977 47.3678 52.5159 47.3168C52.634 47.2659 52.7613 47.2397 52.89 47.24H53.11C53.3593 47.24 53.5984 47.339 53.7747 47.5153C53.951 47.6916 54.05 47.9307 54.05 48.18V53.98C54.0513 54.1043 54.028 54.2276 53.9813 54.3428C53.9347 54.458 53.8657 54.5628 53.7782 54.6512C53.6908 54.7395 53.5868 54.8096 53.472 54.8575C53.3573 54.9054 53.2343 54.93 53.11 54.93H53.1ZM56.42 52.78H56.2C55.9507 52.78 55.7116 52.681 55.5353 52.5047C55.359 52.3284 55.26 52.0893 55.26 51.84V50.35C55.2626 50.1024 55.3628 49.8659 55.5388 49.6918C55.7148 49.5176 55.9524 49.42 56.2 49.42H56.42C56.6676 49.42 56.9052 49.5176 57.0812 49.6918C57.2572 49.8659 57.3574 50.1024 57.36 50.35V51.84C57.36 52.0876 57.2624 52.3252 57.0882 52.5012C56.9141 52.6772 56.6776 52.7774 56.43 52.78H56.42Z" fill="#B4B7C9"/>
</g>
<defs>
<filter id="filter0_d_4632_11228" x="0.6" y="0.6" width="206.8" height="110.8" filterUnits="userSpaceOnUse" color-interpolation-filters="sRGB">
<feFlood flood-opacity="0" result="BackgroundImageFix"/>
<feColorMatrix in="SourceAlpha" type="matrix" values="0 0 0 0 0 0 0 0 0 0 0 0 0 0 0 0 0 0 127 0" result="hardAlpha"/>
<feMorphology radius="1" operator="erode" in="SourceAlpha" result="effect1_dropShadow_4632_11228"/>
<feOffset dy="2"/>
<feGaussianBlur stdDeviation="3.2"/>
<feColorMatrix type="matrix" values="0 0 0 0 0.0745098 0 0 0 0 0.0627451 0 0 0 0 0.133333 0 0 0 0.03 0"/>
<feBlend mode="normal" in2="BackgroundImageFix" result="effect1_dropShadow_4632_11228"/>
<feBlend mode="normal" in="SourceGraphic" in2="effect1_dropShadow_4632_11228" result="shape"/>
</filter>
</defs>
</svg>
